<svg xmlns="http://www.w3.org/2000/svg" viewBox="0 0 522.71 181.47"><defs><style>.cls-1{fill:#ea3232;}</style></defs><g id="Layer_2" data-name="Layer 2"><g id="Layer_1-2" data-name="Layer 1"><path class="cls-1" d="M230.44,17.14c0,5.18-3.24,8.64-8.13,8.64s-8.13-3.46-8.13-8.64,3.24-8.63,8.13-8.63S230.44,12,230.44,17.14Z"/><path class="cls-1" d="M204,0V34.28h66.9V0Zm18.27,31.55c-8.59,0-14.62-6-14.62-14.41s6-14.4,14.62-14.4,14.62,6,14.62,14.4S230.9,31.55,222.31,31.55ZM265.65,31h-6l-12.34-18.2V31h-6V3.24h6.32l12,17.69V3.24h6Z"/><path class="cls-1" d="M.66,17.14C.66,7.07,7.78,0,18.4,0c3.36,0,6.77.7,8.83,2V9.47A14.61,14.61,0,0,0,19,7C12.39,7,8.38,10.88,8.38,17.14s4,10.13,10.58,10.13a14.62,14.62,0,0,0,8.27-2.46v7.47c-2.06,1.3-5.47,2-8.83,2C7.78,34.28.66,27.22.66,17.14Z"/><path class="cls-1" d="M30.88,17.14C30.88,7.12,38.05,0,48.28,0S65.67,7.12,65.67,17.14,58.5,34.28,48.28,34.28,30.88,27.17,30.88,17.14Zm27.07,0C58,11,54.09,6.87,48.28,6.87S38.6,11,38.6,17.14s3.86,10.28,9.68,10.28S58,23.31,58,17.14Z"/><path class="cls-1" d="M77,7.37H67V.6H94.54V7.37H84.46V33.68H77Z"/><path class="cls-1" d="M107,7.37H97V.6h27.57V7.37H114.49V33.68H107Z"/><path class="cls-1" d="M125.86,17.14C125.86,7.12,133,0,143.26,0s17.39,7.12,17.39,17.14-7.17,17.14-17.39,17.14S125.86,27.17,125.86,17.14Zm27.07,0c0-6.16-3.86-10.27-9.67-10.27s-9.68,4.11-9.68,10.27,3.86,10.28,9.68,10.28S152.93,23.31,152.93,17.14Z"/><path class="cls-1" d="M165.86.6h7.52l14.28,21V.6h7.17V33.68h-7.12L173,12V33.68h-7.17Z"/><path class="cls-1" d="M0,50.3a3.23,3.23,0,0,1,3.23-3.23h53c28.6,0,43.4,11.4,43.4,34,0,14-5.8,23.2-17.4,27.8v.4c15.8,4.6,23.8,16,23.8,33.2,0,24-15.2,36.6-44.4,36.6H3.23A3.22,3.22,0,0,1,0,175.85Zm55.4,53.37c19.2,0,27.2-6,27.2-20.6s-8-20.4-28-20.4H20.23A3.23,3.23,0,0,0,17,65.9v34.55a3.22,3.22,0,0,0,3.23,3.22Zm3.6,59.8c21,0,29.6-6.6,29.6-22,0-15.8-9-22.2-31.6-22.2H20.23A3.23,3.23,0,0,0,17,122.5v37.75a3.22,3.22,0,0,0,3.23,3.22Z"/><path class="cls-1" d="M126.2,113.07c0-40.2,28-68.4,68.4-68.4s68.4,28.2,68.4,68.4-28,68.4-68.4,68.4S126.2,153.27,126.2,113.07Zm119.4,0c0-31.2-20.6-52.6-51-52.6s-51,21.4-51,52.6,20.6,52.6,51,52.6S245.6,144.27,245.6,113.07Z"/><path class="cls-1" d="M292,50.3a3.23,3.23,0,0,1,3.22-3.23H334c46,0,71.79,24,71.79,66s-25.79,66-71.79,66H295.22a3.22,3.22,0,0,1-3.22-3.22Zm41.8,113.17c35.79,0,54.59-17.4,54.59-50.4s-18.8-50.4-54.59-50.4H312.22A3.23,3.23,0,0,0,309,65.9v94.35a3.22,3.22,0,0,0,3.22,3.22Z"/><path class="cls-1" d="M475.2,121.67v54.18a3.23,3.23,0,0,1-3.23,3.22H461.42a3.22,3.22,0,0,1-3.22-3.22v-54a3.21,3.21,0,0,0-.57-1.82L411.24,52.12a3.23,3.23,0,0,1,2.67-5h12.58a3.23,3.23,0,0,1,2.67,1.41L464.33,100a3.22,3.22,0,0,0,5.33,0l35.17-51.49a3.25,3.25,0,0,1,2.67-1.41h12a3.24,3.24,0,0,1,2.67,5.06l-46.38,67.72A3.2,3.2,0,0,0,475.2,121.67Z"/></g></g></svg>