<svg xmlns="http://www.w3.org/2000/svg" viewBox="0 0 687 230.67"><defs><style>.cls-1,.cls-2{fill:#ea3232;}.cls-2{font-size:200px;font-family:QuietSans-Bold, Quiet Sans;font-weight:700;letter-spacing:0.02em;}.cls-3{letter-spacing:0.01em;}.cls-4{letter-spacing:0.02em;}.cls-5{letter-spacing:0.02em;}</style></defs><g id="Layer_2" data-name="Layer 2"><g id="Layer_1-2" data-name="Layer 1"><path class="cls-1" d="M241,17.14c0,5.18-3.25,8.63-8.13,8.63s-8.13-3.45-8.13-8.63S228,8.5,232.91,8.5,241,12,241,17.14Z"/><path class="cls-1" d="M214.64,0V34.28h66.9V0Zm18.27,31.54c-8.6,0-14.62-6-14.62-14.4s6-14.41,14.62-14.41,14.61,6,14.61,14.41S241.5,31.54,232.91,31.54Zm43.34-.5h-6l-12.34-18.2V31h-6V3.24h6.32l12,17.69V3.24h6Z"/><path class="cls-1" d="M11.26,17.14C11.26,7.07,18.38,0,29,0c3.36,0,6.77.7,8.82,2V9.47A14.57,14.57,0,0,0,29.55,7C23,7,19,10.88,19,17.14s4,10.13,10.57,10.13a14.58,14.58,0,0,0,8.27-2.46v7.47c-2,1.3-5.46,2-8.82,2C18.38,34.28,11.26,27.22,11.26,17.14Z"/><path class="cls-1" d="M41.48,17.14C41.48,7.12,48.65,0,58.88,0S76.27,7.12,76.27,17.14,69.1,34.28,58.88,34.28,41.48,27.17,41.48,17.14Zm27.07,0c0-6.16-3.86-10.27-9.67-10.27S49.2,11,49.2,17.14s3.86,10.28,9.68,10.28S68.55,23.31,68.55,17.14Z"/><path class="cls-1" d="M87.6,7.37h-10V.6h27.57V7.37H95.06V33.68H87.6Z"/><path class="cls-1" d="M117.62,7.37h-10V.6h27.57V7.37H125.09V33.68h-7.47Z"/><path class="cls-1" d="M136.46,17.14c0-10,7.17-17.14,17.4-17.14s17.39,7.12,17.39,17.14-7.17,17.14-17.39,17.14S136.46,27.17,136.46,17.14Zm27.07,0c0-6.16-3.86-10.27-9.67-10.27s-9.68,4.11-9.68,10.27,3.86,10.28,9.68,10.28S163.53,23.31,163.53,17.14Z"/><path class="cls-1" d="M176.46.6H184l14.28,21V.6h7.17V33.68h-7.12L183.63,12V33.68h-7.17Z"/><text class="cls-2" transform="translate(0 179.07)">G<tspan class="cls-3" x="137.6" y="0">R</tspan><tspan class="cls-4" x="270" y="0">O</tspan><tspan class="cls-5" x="426.2" y="0">UP</tspan></text></g></g></svg>