<svg xmlns="http://www.w3.org/2000/svg" viewBox="0 0 429.41 181.49"><defs><style>.cls-1{fill:#ea3232;}</style></defs><g id="Layer_2" data-name="Layer 2"><g id="Layer_1-2" data-name="Layer 1"><path class="cls-1" d="M230.27,17.14c0,5.18-3.25,8.64-8.13,8.64S214,22.32,214,17.14s3.24-8.63,8.13-8.63S230.27,12,230.27,17.14Z"/><path class="cls-1" d="M203.87,0V34.28h66.9V0Zm18.27,31.55c-8.59,0-14.62-6-14.62-14.41s6-14.4,14.62-14.4,14.61,6,14.61,14.4S230.73,31.55,222.14,31.55ZM265.48,31h-6L247.16,12.85V31h-6V3.24h6.32l12,17.69V3.24h6Z"/><path class="cls-1" d="M.5,17.14C.5,7.07,7.61,0,18.24,0,21.6,0,25,.7,27.06,2V9.47A14.59,14.59,0,0,0,18.79,7C12.22,7,8.21,10.88,8.21,17.14s4,10.13,10.58,10.13a14.52,14.52,0,0,0,8.27-2.46v7.47c-2.06,1.3-5.46,2-8.82,2C7.61,34.28.5,27.22.5,17.14Z"/><path class="cls-1" d="M30.72,17.14C30.72,7.12,37.89,0,48.11,0S65.5,7.12,65.5,17.14,58.34,34.28,48.11,34.28,30.72,27.17,30.72,17.14Zm27.06,0c0-6.16-3.85-10.27-9.67-10.27S38.44,11,38.44,17.14s3.86,10.28,9.67,10.28S57.78,23.31,57.78,17.14Z"/><path class="cls-1" d="M76.83,7.37h-10V.6H94.37V7.37H84.3V33.68H76.83Z"/><path class="cls-1" d="M106.85,7.37h-10V.6H124.4V7.37H114.32V33.68h-7.47Z"/><path class="cls-1" d="M125.7,17.14c0-10,7.17-17.14,17.39-17.14s17.39,7.12,17.39,17.14-7.16,17.14-17.39,17.14S125.7,27.17,125.7,17.14Zm27.06,0c0-6.16-3.85-10.27-9.67-10.27s-9.67,4.11-9.67,10.27,3.86,10.28,9.67,10.28S152.76,23.31,152.76,17.14Z"/><path class="cls-1" d="M165.7.6h7.51l14.29,21V.6h7.17V33.68h-7.12L172.86,12V33.68H165.7Z"/><path class="cls-1" d="M4.24,49.48l20.88-1a4.45,4.45,0,0,1,4.65,4.24l1.87,39.69a4.45,4.45,0,0,0,8,2.46l35.2-47.1A4.44,4.44,0,0,1,78.21,46l24.43-1.15A4.45,4.45,0,0,1,106.41,52L64.66,107.75a4.45,4.45,0,0,0,.19,5.57l48.08,56a4.46,4.46,0,0,1-3.17,7.35L83.48,177.9a4.45,4.45,0,0,1-3.59-1.54L41.45,131.62a4.46,4.46,0,0,0-7.83,3.11l1.93,41a4.44,4.44,0,0,1-4.24,4.65l-20.87,1a4.47,4.47,0,0,1-4.66-4.24L0,54.14A4.47,4.47,0,0,1,4.24,49.48Z"/><path class="cls-1" d="M142.43,46.32l20.76,2.36a4.47,4.47,0,0,1,3.92,4.93l-13.94,122.3a4.45,4.45,0,0,1-4.93,3.92l-20.76-2.36a4.46,4.46,0,0,1-3.92-4.93L137.5,50.24A4.45,4.45,0,0,1,142.43,46.32Z"/><path class="cls-1" d="M187.86,53.88a4.46,4.46,0,0,1,4-4.83l40.79-3.59c45.83-4,73,17.47,76.72,59.5,3.72,42.24-19.32,68-65.14,72l-40.79,3.59a4.44,4.44,0,0,1-4.82-4Zm53.28,96.64c27.89-2.45,39.88-16.76,37.59-42.86S262.12,69.57,234.23,72l-10.31.91a4.44,4.44,0,0,0-4,4.82L226,147.39a4.44,4.44,0,0,0,4.82,4Z"/><path class="cls-1" d="M323.37,160.79l2.49-18.5a4.44,4.44,0,0,1,7.15-2.91c10.14,8.05,23.3,13.39,37.2,15.26,15.26,2.06,23.55-1.07,24.81-10.38.9-6.74-2.7-11.46-16.72-16.78l-15.55-5.93c-23.23-8.77-32.19-21.68-29.47-41.9,3.65-27.15,24.54-38.47,57.25-34.07,15,2,28.28,6.73,37.09,13.13a4.4,4.4,0,0,1,1.75,4.17L426.9,81.25a4.45,4.45,0,0,1-7.09,3,70.45,70.45,0,0,0-32.55-12.83c-14.67-2-22.56,1.21-23.73,9.93-.91,6.74,3.2,10.72,17.24,15.84l16.14,6c22.87,8.53,31.23,21.36,28.41,42.37-3.84,28.54-24.09,39.54-58,35-17.57-2.36-32.76-8.09-42.33-15.61A4.45,4.45,0,0,1,323.37,160.79Z"/></g></g></svg>