<svg xmlns="http://www.w3.org/2000/svg" viewBox="0 0 449.92 181.41"><defs><style>.cls-1{fill:#ea3232;}</style></defs><g id="Layer_2" data-name="Layer 2"><g id="Layer_1-2" data-name="Layer 1"><path class="cls-1" d="M105.68,112.94c0-22.59,15.73-38.44,38.44-38.44s38.44,15.85,38.44,38.44-15.74,38.45-38.44,38.45S105.68,135.54,105.68,112.94Zm67.1,0c0-17.53-11.58-29.56-28.66-29.56s-28.66,12-28.66,29.56,11.57,29.57,28.66,29.57S172.78,130.48,172.78,112.94Z"/><path class="cls-1" d="M229.78,17.14c0,5.18-3.24,8.63-8.13,8.63s-8.13-3.45-8.13-8.63,3.24-8.64,8.13-8.64S229.78,12,229.78,17.14Z"/><path class="cls-1" d="M203.38,0V34.28h66.9V0Zm18.27,31.55c-8.59,0-14.62-6-14.62-14.41s6-14.41,14.62-14.41,14.62,6,14.62,14.41S230.24,31.55,221.65,31.55ZM265,31h-6l-12.34-18.2V31h-6V3.24H247l12,17.69V3.24h6Z"/><path class="cls-1" d="M0,17.14C0,7.07,7.12,0,17.74,0c3.36,0,6.77.7,8.82,2V9.47A14.57,14.57,0,0,0,18.29,7C11.73,7,7.72,10.88,7.72,17.14s4,10.13,10.57,10.13a14.58,14.58,0,0,0,8.27-2.46v7.47c-2,1.3-5.46,2-8.82,2C7.12,34.28,0,27.22,0,17.14Z"/><path class="cls-1" d="M30.22,17.14C30.22,7.12,37.39,0,47.62,0S65,7.12,65,17.14,57.84,34.28,47.62,34.28,30.22,27.17,30.22,17.14Zm27.07,0c0-6.16-3.86-10.27-9.67-10.27S37.94,11,37.94,17.14s3.86,10.28,9.68,10.28S57.29,23.31,57.29,17.14Z"/><path class="cls-1" d="M76.34,7.37h-10V.6H93.88V7.37H83.8V33.68H76.34Z"/><path class="cls-1" d="M106.36,7.37h-10V.6H123.9V7.37H113.83V33.68h-7.47Z"/><path class="cls-1" d="M125.2,17.14c0-10,7.17-17.14,17.4-17.14S160,7.12,160,17.14s-7.17,17.14-17.39,17.14S125.2,27.17,125.2,17.14Zm27.07,0c0-6.16-3.86-10.27-9.67-10.27s-9.68,4.11-9.68,10.27,3.86,10.28,9.68,10.28S152.27,23.31,152.27,17.14Z"/><path class="cls-1" d="M165.2.6h7.52l14.28,21V.6h7.17V33.68h-7.12L172.37,12V33.68H165.2Z"/><path class="cls-1" d="M1.52,47.07h14A1.53,1.53,0,0,1,17,48.59V161.75a1.52,1.52,0,0,0,1.52,1.52H88.88a1.52,1.52,0,0,1,1.52,1.52v12.76a1.52,1.52,0,0,1-1.52,1.52H1.52A1.52,1.52,0,0,1,0,177.55v-129A1.53,1.53,0,0,1,1.52,47.07Z"/><path class="cls-1" d="M223.44,167.29V152.36a1.51,1.51,0,0,1,2.49-1.15c11.17,9.23,27.21,14.4,44.11,14.4,21.8,0,33.8-8.4,33.8-22.6,0-11.2-7.6-18-25.8-21.8l-20.6-4.4c-24.2-5.2-33.6-17.8-33.6-34.4,0-23.39,18.4-37.8,49.8-37.8,16.23,0,31.12,3.83,40,10.54a1.53,1.53,0,0,1,.6,1.22V70.75a1.53,1.53,0,0,1-2.48,1.18c-9.62-7.47-23.64-11.52-38.32-11.52-20.6,0-32.2,8-32.2,21.2,0,9.8,6.4,16.2,24.8,20l21,4.4c24,5,34.2,17.8,34.2,36.2,0,25-18.6,39.2-51.2,39.2-18.66,0-35.78-4.63-46.05-12.94A1.53,1.53,0,0,1,223.44,167.29Z"/><path class="cls-1" d="M386.2,62.81H344a1.52,1.52,0,0,1-1.52-1.52V48.54A1.52,1.52,0,0,1,344,47H448.4a1.52,1.52,0,0,1,1.52,1.52V61.29a1.52,1.52,0,0,1-1.52,1.52H406.24a1.53,1.53,0,0,0-1.52,1.53V177.49A1.52,1.52,0,0,1,403.2,179h-14a1.52,1.52,0,0,1-1.52-1.52V64.34A1.53,1.53,0,0,0,386.2,62.81Z"/><path class="cls-1" d="M212.36,113.67l-18.74,18.75a.51.51,0,0,1-.2.12l-13.8,4.6a.53.53,0,0,1-.54-.88l18.4-18.4a.53.53,0,0,0-.38-.9l-48.68-.14a.52.52,0,0,0-.54.53l-.14,48.4a.53.53,0,0,0,.91.37L166.8,148a.53.53,0,0,1,.88.55l-4.6,13.79a.57.57,0,0,1-.13.21l-13.77,13.77-5,5a.53.53,0,0,1-.75,0l-18.74-18.74a.46.46,0,0,1-.13-.21L120,148.52a.53.53,0,0,1,.88-.55l18.4,18.4a.52.52,0,0,0,.9-.37l.15-48.69a.53.53,0,0,0-.53-.53l-48.4-.14a.52.52,0,0,0-.38.9l18.15,18.15a.53.53,0,0,1-.54.88L94.82,132a.55.55,0,0,1-.21-.12L80.85,118.08l-5-5a.56.56,0,0,1,0-.76L94.61,93.61a.57.57,0,0,1,.21-.13l13.8-4.6a.53.53,0,0,1,.54.88l-18.4,18.4a.53.53,0,0,0,.37.91l48.69.15a.53.53,0,0,0,.53-.53l.15-48.41a.53.53,0,0,0-.91-.37L121.44,78.06a.53.53,0,0,1-.88-.55l4.6-13.79a.57.57,0,0,1,.13-.21L144,44.77a.53.53,0,0,1,.75,0l18.74,18.74a.57.57,0,0,1,.13.21l4.6,13.79a.53.53,0,0,1-.88.55L149,59.66a.53.53,0,0,0-.91.37l-.14,48.69a.53.53,0,0,0,.53.53l48.4.14a.53.53,0,0,0,.38-.9L179.08,90.33a.53.53,0,0,1,.54-.88l13.8,4.6a.53.53,0,0,1,.2.13L207.39,108l5,5A.53.53,0,0,1,212.36,113.67Z"/></g></g></svg>