<svg xmlns="http://www.w3.org/2000/svg" viewBox="0 0 674.06 85.5"><defs><style>.cls-1{fill:#ea3232;}</style></defs><g id="Layer_2" data-name="Layer 2"><g id="Layer_1-2" data-name="Layer 1"><path class="cls-1" d="M573,42.75c0,12.92-8.08,21.54-20.27,21.54S532.5,55.67,532.5,42.75s8.08-21.53,20.27-21.53S573,29.83,573,42.75Z"/><path class="cls-1" d="M507.22,0V85.5H674.06V0Zm45.55,78.68c-21.43,0-36.45-14.92-36.45-35.93s15-35.92,36.45-35.92,36.45,14.91,36.45,35.92S574.2,78.68,552.77,78.68Zm108.09-3a1.73,1.73,0,0,1-1.73,1.73H646.87a1.72,1.72,0,0,1-1.44-.76L618.34,36.71a1.73,1.73,0,0,0-3.17,1v38a1.74,1.74,0,0,1-1.73,1.73H601.88a1.73,1.73,0,0,1-1.73-1.73V9.82a1.72,1.72,0,0,1,1.73-1.73H615a1.72,1.72,0,0,1,1.43.76l26.26,38.69a1.73,1.73,0,0,0,3.16-1V9.82a1.73,1.73,0,0,1,1.74-1.73h11.55a1.72,1.72,0,0,1,1.73,1.73Z"/><path class="cls-1" d="M0,42.75C0,17.63,17.75,0,44.25,0c7.93,0,16,1.57,21.16,4.5A1.7,1.7,0,0,1,66.25,6V20.54A1.73,1.73,0,0,1,63.65,22a36.74,36.74,0,0,0-18-4.53c-16.37,0-26.37,9.63-26.37,25.25S29.25,68,45.62,68a36.73,36.73,0,0,0,18-4.52A1.73,1.73,0,0,1,66.25,65V79.52A1.7,1.7,0,0,1,65.41,81c-5.19,2.92-13.23,4.49-21.16,4.49C17.75,85.5,0,67.88,0,42.75Z"/><path class="cls-1" d="M75.38,42.75C75.38,17.75,93.25,0,118.75,0s43.37,17.75,43.37,42.75S144.25,85.5,118.75,85.5,75.38,67.75,75.38,42.75Zm67.5,0c0-15.37-9.63-25.62-24.13-25.62S94.62,27.38,94.62,42.75s9.63,25.63,24.13,25.63S142.88,58.13,142.88,42.75Z"/><path class="cls-1" d="M188.64,18.38H167.11a1.73,1.73,0,0,1-1.73-1.73V3.24a1.73,1.73,0,0,1,1.73-1.74h65.28a1.73,1.73,0,0,1,1.73,1.74V16.65a1.73,1.73,0,0,1-1.73,1.73H210.73A1.73,1.73,0,0,0,209,20.11V82.27A1.73,1.73,0,0,1,207.27,84H192.11a1.72,1.72,0,0,1-1.73-1.73V20.11A1.73,1.73,0,0,0,188.64,18.38Z"/><path class="cls-1" d="M263.52,18.38H242a1.73,1.73,0,0,1-1.73-1.73V3.24A1.73,1.73,0,0,1,242,1.5h65.29A1.74,1.74,0,0,1,309,3.24V16.65a1.74,1.74,0,0,1-1.73,1.73H285.61a1.73,1.73,0,0,0-1.74,1.73V82.27A1.72,1.72,0,0,1,282.14,84H267a1.72,1.72,0,0,1-1.73-1.73V20.11A1.73,1.73,0,0,0,263.52,18.38Z"/><path class="cls-1" d="M312.25,42.75c0-25,17.87-42.75,43.37-42.75S399,17.75,399,42.75,381.12,85.5,355.62,85.5,312.25,67.75,312.25,42.75Zm67.5,0c0-15.37-9.63-25.62-24.13-25.62S331.5,27.38,331.5,42.75s9.62,25.63,24.12,25.63S379.75,58.13,379.75,42.75Z"/><path class="cls-1" d="M413.73,1.5h16.1a1.74,1.74,0,0,1,1.43.76l31.95,47.08a1.73,1.73,0,0,0,3.16-1V3.24a1.74,1.74,0,0,1,1.74-1.74h14.41a1.74,1.74,0,0,1,1.73,1.74v79A1.73,1.73,0,0,1,482.52,84h-15.1a1.72,1.72,0,0,1-1.44-.76L433,34.67a1.74,1.74,0,0,0-3.17,1V82.27A1.72,1.72,0,0,1,428.14,84H413.73A1.72,1.72,0,0,1,412,82.27v-79A1.73,1.73,0,0,1,413.73,1.5Z"/></g></g></svg>